<?xml version="1.0" encoding="UTF-8"?>
<svg version="1.1" xmlns="http://www.w3.org/2000/svg" width="2048" height="2048">
<path d="M0 0 C675.84 0 1351.68 0 2048 0 C2048 675.84 2048 1351.68 2048 2048 C1372.16 2048 696.32 2048 0 2048 C0 1372.16 0 696.32 0 0 Z " fill="#88C3E1" transform="translate(0,0)"/>
<path d="M0 0 C675.84 0 1351.68 0 2048 0 C2048 675.84 2048 1351.68 2048 2048 C1372.16 2048 696.32 2048 0 2048 C0 1372.16 0 696.32 0 0 Z M949.49169922 155.62841797 C946.40370761 155.95703797 943.31701649 156.24369492 940.22265625 156.50390625 C907.3516719 159.33499103 874.02121024 164.90617786 841.87695312 172.34375 C838.66764721 173.07581164 835.45200707 173.77421896 832.234375 174.46875 C820.19068488 177.07672457 808.2373675 179.80348376 796.41699219 183.29296875 C793.76498186 184.06874874 791.10558651 184.8155665 788.4453125 185.5625 C718.74882906 205.39352738 650.92285872 234.04498333 588.75048828 271.35058594 C586.00516765 272.99690106 583.2516905 274.62876709 580.49609375 276.2578125 C578.74700613 277.29621887 576.99828995 278.33525122 575.25 279.375 C574.48856689 279.82649414 573.72713379 280.27798828 572.94262695 280.74316406 C567.53962425 283.98272744 562.29513007 287.43046613 557.06591797 290.94287109 C554.13663472 292.90832265 551.19422702 294.8520346 548.24609375 296.7890625 C536.36353926 304.62276905 524.7184835 312.67149803 513.35058594 321.23486328 C510.90156828 323.0739158 508.44036061 324.89564949 505.9765625 326.71484375 C495.66306419 334.35253536 485.63978693 342.25917662 475.80126953 350.49853516 C473.346137 352.54503354 470.86040709 354.55294405 468.375 356.5625 C458.88243862 364.32126021 449.64042007 372.41259006 440.57275391 380.6628418 C438.91576327 382.16809625 437.25324289 383.6672972 435.58398438 385.15893555 C426.50604549 393.34712386 417.87602983 401.97198758 409.24389648 410.62573242 C406.67870537 413.19631311 404.10817269 415.76146593 401.53710938 418.32617188 C399.88249156 419.98145008 398.22818375 421.63703825 396.57421875 423.29296875 C395.43807381 424.42607735 395.43807381 424.42607735 394.27897644 425.58207703 C390.19513098 429.68376372 386.27219547 433.86993216 382.50065613 438.26123047 C380.27414313 440.84103065 377.94768119 443.31893086 375.625 445.8125 C371.27675338 450.51375185 367.18728781 455.37249334 363.171875 460.36328125 C361.06243651 462.92420028 358.87112352 465.37123455 356.625 467.8125 C352.10907457 472.77453938 347.99861252 477.99479667 343.890625 483.29296875 C341.45379793 486.43374961 338.96488131 489.52872288 336.46166992 492.61669922 C331.26182816 499.04174797 326.31189971 505.58597731 321.56713867 512.35327148 C319.21539302 515.70342524 316.82390644 519.02379327 314.4296875 522.34375 C308.52178463 530.58669111 302.86993362 538.99656129 297.25 547.4375 C296.72531128 548.22480499 296.20062256 549.01210999 295.66003418 549.82327271 C287.09866922 562.68565167 278.79293925 575.65373454 271 589 C270.49645996 589.85980469 269.99291992 590.71960938 269.47412109 591.60546875 C261.89506242 604.59398044 254.67256241 617.77645867 247.58496094 631.03857422 C246.56123986 632.95134944 245.53352337 634.86199412 244.50097656 636.77001953 C229.63763663 664.24783735 217.41408651 692.94812112 206 722 C205.59088379 723.03286133 205.18176758 724.06572266 204.76025391 725.12988281 C199.57644189 738.27809567 195.06233267 751.6281966 190.6875 765.0625 C190.43233612 765.84378265 190.17717224 766.62506531 189.91427612 767.43002319 C187.00312835 776.37074109 184.30091446 785.31743538 181.9362793 794.41967773 C181.0106324 797.9593418 180.03286412 801.48002744 179.03515625 805 C172.83328608 826.95211053 168.08483119 848.87203238 164.18359375 871.33984375 C163.50190107 875.24158681 162.78826506 879.12797406 161.97265625 883.00390625 C156.64979637 908.42592743 153.89034708 934.85209076 152.21044922 960.75585938 C152.05879583 963.09364379 151.89782432 965.43083038 151.73095703 967.76757812 C148.3831095 1014.90673704 149.07041328 1062.0089012 154 1109 C154.09194641 1109.88953369 154.18389282 1110.77906738 154.27862549 1111.69555664 C157.94938616 1147.00783054 163.55659034 1182.50058271 172 1217 C172.45729492 1218.87051025 172.45729492 1218.87051025 172.92382812 1220.77880859 C192.1351159 1298.84664948 220.13416326 1374.99938888 265 1453 C265.58845703 1453.99999023 266.17691406 1454.99998047 266.78320312 1456.03027344 C285.41344968 1487.61941389 305.47237827 1518.05163918 328 1547 C328.84232614 1548.09935707 329.68345335 1549.1996337 330.5234375 1550.30078125 C338.87133041 1561.23934423 347.62557137 1571.81712378 356.54541016 1582.29101562 C357.52539302 1583.44238858 358.50421145 1584.59475354 359.48193359 1585.74804688 C365.97624476 1593.40832919 372.57478257 1600.93616529 379.41362 1608.29237366 C380.4663088 1609.42551901 381.51784466 1610.5597366 382.56819153 1611.6950531 C392.18574593 1622.08554777 402.04830238 1632.20577006 412.07299805 1642.20336914 C414.46326107 1644.58820255 416.84803758 1646.97843105 419.23242188 1649.36914062 C420.77832482 1650.91438372 422.32453743 1652.45931709 423.87109375 1654.00390625 C424.91975868 1655.05560753 424.91975868 1655.05560753 425.98960876 1656.1285553 C429.94852929 1660.06889812 434.00571556 1663.83663856 438.24090576 1667.47901917 C440.82589698 1669.71410243 443.31194848 1672.04581495 445.8125 1674.375 C450.46038542 1678.6687538 455.24416348 1682.7353184 460.17578125 1686.703125 C462.66231184 1688.72536565 465.10289714 1690.7917713 467.53222656 1692.88208008 C474.33485664 1698.72437565 481.38280669 1704.19057143 488.53125 1709.6015625 C491.57205902 1711.9049218 494.59091115 1714.2332896 497.59375 1716.5859375 C498.36178955 1717.18752686 499.1298291 1717.78911621 499.92114258 1718.40893555 C501.3602772 1719.53832214 502.79780734 1720.66975861 504.2331543 1721.80395508 C516.58620309 1731.48346267 529.6234128 1740.19645934 542.6875 1748.875 C543.47958862 1749.40191437 544.27167725 1749.92882874 545.08776855 1750.47171021 C560.95877131 1761.02548255 576.81646721 1771.46073619 593.53173828 1780.63916016 C596.49496634 1782.27289242 599.44864068 1783.92332892 602.40234375 1785.57421875 C609.25712077 1789.40308689 616.12543968 1793.20676262 623 1797 C623.80050781 1797.44375977 624.60101562 1797.88751953 625.42578125 1798.34472656 C638.14225218 1805.3694561 651.32543047 1811.41751755 664.54394531 1817.42724609 C666.68605437 1818.40206006 668.82639036 1819.38079306 670.96386719 1820.36572266 C715.50863613 1840.86884214 762.03062692 1857.60336542 809.69140625 1869.15844727 C813.11841637 1870.03011963 816.50253017 1871.00512391 819.89453125 1872.00390625 C827.31518086 1874.15040491 834.80634512 1875.78495404 842.375 1877.3125 C843.09055054 1877.45829498 843.80610107 1877.60408997 844.54333496 1877.75430298 C897.19082098 1888.45691264 950.40409652 1896.06426035 1004.21875 1896.203125 C1005.91727221 1896.21018981 1007.61579414 1896.21732249 1009.3143158 1896.22451782 C1014.70954833 1896.24403267 1020.10473547 1896.24920959 1025.5 1896.25 C1026.4192992 1896.25029457 1027.3385984 1896.25058914 1028.28575516 1896.25089264 C1055.61177984 1896.25230759 1082.82494825 1896.1997347 1110 1893 C1111.22541504 1892.85788086 1111.22541504 1892.85788086 1112.47558594 1892.71289062 C1151.81346406 1888.10615863 1191.63288773 1881.91181472 1230 1872 C1231.13920898 1871.71334473 1232.27841797 1871.42668945 1233.45214844 1871.13134766 C1252.24831265 1866.3909881 1270.66970499 1860.81126936 1289.03967285 1854.65496826 C1290.99602022 1854.00132969 1292.95422076 1853.35356986 1294.91308594 1852.70751953 C1328.55443878 1841.59747684 1360.93677373 1828.06790616 1392.96820068 1812.95697021 C1394.87633589 1812.05824535 1396.78649163 1811.16402448 1398.69775391 1810.27197266 C1413.44323598 1803.38091034 1427.81613625 1795.98185367 1442 1788 C1442.86544434 1787.51563477 1443.73088867 1787.03126953 1444.62255859 1786.53222656 C1465.21432492 1774.98911696 1485.27560491 1762.70954043 1504.8203125 1749.47021484 C1506.65332525 1748.2338346 1508.49342805 1747.01100745 1510.34375 1745.80078125 C1532.26917133 1731.43481151 1553.11006881 1715.28998827 1573.21044922 1698.48974609 C1575.68512935 1696.42965085 1578.18636755 1694.40284683 1580.6875 1692.375 C1590.69463649 1684.19287321 1600.46195424 1675.72382234 1610 1667 C1610.50917969 1666.5359375 1611.01835938 1666.071875 1611.54296875 1665.59375 C1617.82227565 1659.86630618 1623.98718948 1654.07574982 1629.94921875 1648.015625 C1631.93993945 1646.05903094 1633.99768963 1644.24347668 1636.125 1642.4375 C1639.35962259 1639.65774621 1642.07034041 1636.68413679 1644.8203125 1633.43359375 C1647.75368935 1630.1585153 1650.87375023 1627.08995967 1654 1624 C1658.34392359 1619.70201684 1662.55436327 1615.37947459 1666.50390625 1610.7109375 C1668.05117606 1608.9414749 1669.68475308 1607.32025552 1671.375 1605.6875 C1674.18568101 1602.92656556 1676.6617178 1600.01210771 1679.125 1596.9375 C1682.69511554 1592.49307045 1686.45472366 1588.32432494 1690.375 1584.1875 C1696.20459623 1578.00544014 1701.45842893 1571.51540282 1706.62304688 1564.77539062 C1708.48851082 1562.37013286 1710.40724846 1560.0100401 1712.32568359 1557.64697266 C1719.2581491 1549.09351686 1725.80040571 1540.27410921 1732.27392578 1531.37011719 C1733.91348558 1529.11879519 1735.56290354 1526.87505822 1737.21484375 1524.6328125 C1760.8592356 1492.40075415 1781.08448578 1458.16525469 1800 1423 C1800.45729492 1422.1553418 1800.91458984 1421.31068359 1801.38574219 1420.44042969 C1818.87952227 1388.05993394 1833.34969664 1354.04211622 1845.76416016 1319.41650391 C1847.01863073 1315.94849499 1848.30935016 1312.49560602 1849.60546875 1309.04296875 C1857.20107054 1288.54766642 1863.12959621 1267.6489048 1868.90988159 1246.57844543 C1870.2897826 1241.54850505 1871.70888854 1236.53371348 1873.171875 1231.52734375 C1875.15379754 1224.61595848 1876.78362114 1217.6492738 1878.3125 1210.625 C1878.45862732 1209.95381134 1878.60475464 1209.28262268 1878.75531006 1208.59109497 C1888.06953736 1165.56291216 1893.99788943 1122.06371221 1896.85897827 1078.14306641 C1896.95166806 1076.73448654 1897.04746213 1075.32610688 1897.14663696 1073.91796875 C1898.14648852 1059.66060102 1898.19925927 1045.41275145 1898.1875 1031.125 C1898.18722809 1029.88066193 1898.18695618 1028.63632385 1898.18667603 1027.35427856 C1898.13662989 977.20204627 1895.57451726 926.91100515 1885.53857422 877.65478516 C1884.96301393 874.81768517 1884.40415888 871.97761605 1883.84765625 869.13671875 C1882.59278272 862.7521051 1881.30084942 856.37538492 1880 850 C1879.77586426 848.89237305 1879.55172852 847.78474609 1879.32080078 846.64355469 C1873.55129837 818.28056684 1865.95925011 790.51769678 1857 763 C1856.62681641 761.85305664 1856.25363281 760.70611328 1855.86914062 759.52441406 C1846.06606204 729.68492272 1834.58064013 700.32392159 1821 672 C1820.06056459 670.01462247 1819.12177843 668.02893762 1818.18359375 666.04296875 C1815.16349184 659.67514345 1812.08910595 653.3345876 1809 647 C1808.41110171 645.78793829 1807.82223533 644.57586107 1807.23339844 643.36376953 C1799.34570783 627.15460234 1791.05178211 611.34691969 1781.73730469 595.89794922 C1780.01175911 593.01961504 1778.31892499 590.12423592 1776.6328125 587.22265625 C1769.11024484 574.36183439 1761.07881051 561.89096034 1752.8125 549.5 C1752.31502258 548.7536731 1751.81754517 548.00734619 1751.30499268 547.23840332 C1741.60244195 532.70761083 1731.70784159 518.29803762 1721.0625 504.4375 C1720.05799805 503.1239856 1720.05799805 503.1239856 1719.03320312 501.78393555 C1713.27565523 494.28889068 1707.34812191 486.9422962 1701.34423828 479.64404297 C1699.51603339 477.40809459 1697.72689878 475.1420617 1695.9375 472.875 C1688.22991522 463.22432662 1680.07424347 453.95895343 1671.66796875 444.9140625 C1669.61644504 442.673306 1667.6065138 440.41283912 1665.61328125 438.12109375 C1655.55789286 426.59196547 1644.80028691 415.70154967 1634 404.875 C1633.26765137 404.13876907 1633.26765137 404.13876907 1632.52050781 403.38766479 C1627.43788098 398.28375339 1622.3200257 393.29289387 1616.85009766 388.60498047 C1613.70463377 385.87625527 1610.70934267 382.98891924 1607.6875 380.125 C1602.57322993 375.31518091 1597.3669691 370.72765714 1591.87890625 366.34375 C1588.32817971 363.45306353 1584.88499466 360.44987813 1581.4375 357.4375 C1575.74059399 352.47109472 1569.96500238 347.64352493 1564 343 C1563.35885254 342.50032715 1562.71770508 342.0006543 1562.05712891 341.48583984 C1559.70634733 339.65516548 1557.35355464 337.82710779 1555 336 C1554.21222168 335.38817871 1553.42444336 334.77635742 1552.61279297 334.14599609 C1541.30223783 325.38494197 1529.86496881 316.92967329 1517.96630859 308.98535156 C1515.77521618 307.51885251 1513.58822732 306.04713995 1511.40478516 304.56933594 C1461.43549546 270.74987046 1408.9594601 240.82317762 1353 218 C1351.27499268 217.29423828 1351.27499268 217.29423828 1349.51513672 216.57421875 C1317.71868266 203.64731092 1285.15908311 191.88990399 1251.859375 183.49609375 C1246.73988415 182.20413862 1241.65335395 180.80915731 1236.56591797 179.39697266 C1192.38030487 167.21492684 1146.56507064 160.49321158 1101 156 C1100.18271423 155.9175 1099.36542847 155.835 1098.52337646 155.75 C1049.55619771 150.84244949 998.4440361 150.40971069 949.49169922 155.62841797 Z " fill="#FEFEFE" transform="translate(0,0)"/>
<path d="M0 0 C1.17346481 0.19832932 1.17346481 0.19832932 2.37063599 0.40066528 C15.61216349 2.65165259 28.56174847 5.45545756 41.4375 9.3125 C42.27071777 9.54984863 43.10393555 9.78719727 43.96240234 10.03173828 C73.70555688 18.56191582 103.74219014 34.45714154 127.4375 54.3125 C127.99163574 54.77333984 128.54577148 55.23417969 129.11669922 55.70898438 C141.28031979 65.85154136 153.10019181 76.28459286 163.4375 88.3125 C164.35739229 89.35867178 165.27800618 90.40420936 166.19921875 91.44921875 C174.04831478 100.41088743 181.3420058 109.74633186 188.4375 119.3125 C188.92154297 119.95960938 189.40558594 120.60671875 189.90429688 121.2734375 C198.16712282 132.38121449 205.33002853 144.12699503 212.42984009 155.99525452 C214.09219557 158.77183119 215.76363244 161.54285101 217.4375 164.3125 C218.07349121 165.36598633 218.70948242 166.41947266 219.36474609 167.50488281 C219.97012207 168.48553711 220.57549805 169.46619141 221.19921875 170.4765625 C221.72862061 171.33975098 222.25802246 172.20293945 222.8034668 173.09228516 C226.07792288 177.5413967 229.47721389 178.82995626 234.73046875 180.2578125 C236.617052 180.7827832 236.617052 180.7827832 238.54174805 181.31835938 C239.20733734 181.50035889 239.87292664 181.6823584 240.5586853 181.86987305 C267.63308655 189.3073461 294.44217629 198.48226285 318.4375 213.3125 C319.95537109 214.24835938 319.95537109 214.24835938 321.50390625 215.203125 C354.07685687 236.09737755 374.58131308 266.98245245 382.94238281 304.58300781 C387.5482181 326.73488229 386.81355102 350.20054063 382.4375 372.3125 C382.23253906 373.49714844 382.02757812 374.68179687 381.81640625 375.90234375 C376.27395979 405.40468297 362.49512225 430.29798399 341.88232422 451.8046875 C340.56011114 453.18454353 339.25011077 454.57607539 337.94140625 455.96875 C331.32551868 462.83449868 324.04709961 468.60789141 316.4375 474.3125 C315.88078613 474.7353125 315.32407227 475.158125 314.75048828 475.59375 C277.58350977 503.70230686 232.10464526 519.7023041 187.4375 531.3125 C186.69790039 531.50763184 185.95830078 531.70276367 185.19628906 531.90380859 C132.99021397 545.62195201 80.14292847 552.18479927 26.4375 556.3125 C25.63298401 556.37522095 24.82846802 556.43794189 23.99957275 556.50256348 C1.45562887 558.25580108 -20.96427 558.56216176 -43.5625 558.3125 C-41.85224534 554.64815049 -39.80252076 552.3779411 -36.875 549.5625 C-33.129425 545.8976486 -29.61188216 542.15475222 -26.20703125 538.17578125 C-24.55851248 536.30798207 -22.83946419 534.55794376 -21.0625 532.8125 C-18.06674276 529.86313723 -15.30255629 526.77638243 -12.5625 523.58984375 C-10.65200278 521.4144143 -8.68810837 519.2969517 -6.70922852 517.18383789 C-0.670611 510.7145691 4.80658742 503.91176953 10.20019531 496.90087891 C11.92296076 494.68929406 13.71493611 492.53643278 15.5 490.375 C31.08904002 470.8647904 44.21282901 449.13616224 41.4375 423.3125 C39.85485736 414.84802925 36.68990098 408.08533284 31.4375 401.3125 C30.715625 400.301875 29.99375 399.29125 29.25 398.25 C18.43615393 385.86695229 0.80146164 378.74563919 -14.5625 374.3125 C-15.23104004 374.11060059 -15.89958008 373.90870117 -16.58837891 373.70068359 C-26.99928914 370.57619287 -37.54159772 368.46154599 -48.25 366.625 C-49.40508057 366.42261719 -50.56016113 366.22023438 -51.75024414 366.01171875 C-74.07168018 362.35221697 -96.55290345 361.87110299 -119.125 361.875 C-119.84475887 361.87423588 -120.56451775 361.87347176 -121.30608749 361.87268448 C-160.95972151 361.83805584 -200.62002016 364.52277827 -239.5625 372.3125 C-241.69003867 372.71779189 -243.81764269 373.12274089 -245.9453125 373.52734375 C-280.96938422 380.35042813 -311.38834135 390.67006129 -337 416.4375 C-338.3780481 417.81965698 -338.3780481 417.81965698 -339.78393555 419.22973633 C-346.65598262 426.20774141 -352.77020097 433.43456032 -358.5625 441.3125 C-359.84464979 442.94501943 -361.13586235 444.57047582 -362.4375 446.1875 C-363.0665625 446.97253906 -363.695625 447.75757813 -364.34375 448.56640625 C-366.08786221 450.72505218 -367.83832431 452.87792012 -369.59375 455.02734375 C-375.47346231 462.22962129 -381.28097081 469.46479935 -386.91796875 476.859375 C-388.86035265 479.40544256 -390.82517845 481.932747 -392.80078125 484.453125 C-400.77706159 494.63331847 -408.53819258 504.95085553 -416.15893555 515.39990234 C-416.62211182 516.03105957 -417.08528809 516.6622168 -417.5625 517.3125 C-418.02148682 518.05387207 -418.48047363 518.79524414 -418.95336914 519.55908203 C-420.5625 521.3125 -420.5625 521.3125 -422.65527344 521.60742188 C-431.47070899 520.46487027 -440.12962006 518.68706775 -448.8125 516.8125 C-450.48271811 516.45640558 -452.15296613 516.10045142 -453.82324219 515.74462891 C-469.92317053 512.29710064 -485.96434695 508.5966201 -501.99504089 504.84220886 C-506.47769652 503.79372939 -510.96417896 502.76586152 -515.45703125 501.76171875 C-541.22742137 495.98701571 -566.87955172 489.36655425 -592.06445312 481.40576172 C-596.4367498 480.03926643 -600.81989557 478.70982968 -605.203125 477.37890625 C-681.71530564 454.09358794 -681.71530564 454.09358794 -700.5625 442.3125 C-696.67926994 438.20437245 -692.49581874 434.89220516 -687.9375 431.5625 C-681.3190913 426.65908589 -674.86138398 421.62384709 -668.5625 416.3125 C-667.76295898 415.64033447 -667.76295898 415.64033447 -666.94726562 414.95458984 C-634.6731173 389.38390929 -634.6731173 389.38390929 -618.15625 353.4921875 C-617.70852921 345.09643211 -618.69983807 338.36945505 -623.5625 331.3125 C-624.26375 330.260625 -624.965 329.20875 -625.6875 328.125 C-643.12194274 308.89823137 -677.32665411 306.74317141 -701.5625 305.3125 C-710.33605177 304.99529252 -719.11206524 304.98225232 -727.89038086 304.99682617 C-731.85884084 304.99998713 -735.82655323 304.97642624 -739.79492188 304.95117188 C-760.67441531 304.89794181 -780.86477477 306.51752151 -801.1875 311.4375 C-803.42940487 311.96214669 -805.67158296 312.48562755 -807.9140625 313.0078125 C-808.86104004 313.23484863 -809.80801758 313.46188477 -810.78369141 313.69580078 C-813.69733447 314.34242373 -816.61504107 314.84653942 -819.5625 315.3125 C-822.49135807 307.39760973 -824.05823102 299.33917434 -825.5625 291.0625 C-825.82785591 289.62678575 -826.093237 288.19107616 -826.35864258 286.75537109 C-827.94300884 278.11014259 -829.39964885 269.45396647 -830.53710938 260.73730469 C-831.13199954 256.18255042 -831.83802053 251.65978058 -832.61959839 247.13389587 C-834.19259884 237.99098984 -835.42112605 228.85560212 -836.38793945 219.62963867 C-836.62182065 217.4052382 -836.86594809 215.18214227 -837.11132812 212.95898438 C-839.56521238 190.32399369 -840.91749152 167.78638735 -840.87817383 145.01416016 C-840.87499571 141.18233185 -840.89867397 137.35126621 -840.92382812 133.51953125 C-841.01280938 98.5182298 -838.74754629 52.20404754 -812.6953125 25.4453125 C-811.99148438 24.74148438 -811.28765625 24.03765625 -810.5625 23.3125 C-810.02367187 22.69117188 -809.48484375 22.06984375 -808.9296875 21.4296875 C-799.28768515 10.62483059 -784.42401533 5.04381244 -770.28125 3.90234375 C-747.79129326 2.79270712 -729.06840618 11.45460941 -712.5625 26.3125 C-711.82902344 26.96347656 -711.09554687 27.61445312 -710.33984375 28.28515625 C-691.20107535 46.31241723 -678.09743845 71.05435529 -665.13916016 93.58837891 C-663.76061748 95.97019667 -662.36377574 98.33868022 -660.94921875 100.69921875 C-656.00864859 108.94649332 -651.3902592 117.32426148 -646.875 125.8125 C-627.57144498 165.04563236 -627.57144498 165.04563236 -596.5625 194.3125 C-595.59441406 194.85003906 -594.62632812 195.38757813 -593.62890625 195.94140625 C-588.06404821 198.24648686 -582.04763915 197.82505461 -576.125 197.8125 C-574.97451172 197.84085938 -573.82402344 197.86921875 -572.63867188 197.8984375 C-551.32713254 197.94424414 -529.97713469 190.82521945 -509.5 185.5625 C-508.30104095 185.25602539 -507.10208191 184.94955078 -505.86679077 184.63378906 C-488.32343408 180.14620137 -470.86796435 175.46809491 -453.53857422 170.21044922 C-450.79276758 169.38197696 -448.04146417 168.57786472 -445.28515625 167.78515625 C-424.3013413 161.71489036 -403.19055167 154.98109811 -383.5625 145.3125 C-382.84707031 144.96364746 -382.13164063 144.61479492 -381.39453125 144.25537109 C-365.41191867 136.38075202 -352.01817166 126.05563952 -338.32373047 114.7578125 C-336.02849138 112.87427834 -333.70375065 111.02936437 -331.375 109.1875 C-327.62261172 106.1993711 -323.96073763 103.11359612 -320.3125 100 C-314.15846306 94.75998265 -307.85973037 89.73079891 -301.46630859 84.78662109 C-300.15195777 83.76891781 -298.83992244 82.74821952 -297.52978516 81.72509766 C-274.7350311 63.92413516 -250.41246985 49.27660274 -224.5625 36.3125 C-223.72831543 35.89339355 -222.89413086 35.47428711 -222.03466797 35.04248047 C-189.70088971 18.93119262 -154.90431339 9.20107148 -119.5625 2.3125 C-118.675625 2.13638184 -117.78875 1.96026367 -116.875 1.77880859 C-78.96842409 -5.57348769 -37.99880583 -6.51426954 0 0 Z " fill="#FEFEFE" transform="translate(1230.5625,703.6875)"/>
<path d="M0 0 C1.67036819 -0.00200912 1.67036819 -0.00200912 3.3744812 -0.00405884 C21.49459847 0.00064604 39.22632923 0.73684205 57.1875 3.25 C58.08533203 3.3727832 58.98316406 3.49556641 59.90820312 3.62207031 C65.03509006 4.34509283 70.11194094 5.23001955 75.1875 6.25 C75.90583008 6.39018555 76.62416016 6.53037109 77.36425781 6.67480469 C121.67356203 15.43609443 121.67356203 15.43609443 132.9765625 31.84765625 C137.28647689 38.945738 139.27243273 43.68484147 137.64453125 52.03515625 C133.32802008 68.06501697 123.7739492 81.72867136 113.1875 94.25 C112.24548612 95.38360993 111.3040808 96.51772583 110.36328125 97.65234375 C105.44543627 103.54999908 100.39047603 109.31213946 95.2265625 114.99609375 C93.39663753 117.0188269 91.59868272 119.06369435 89.8125 121.125 C81.64237822 130.48582359 73.12606965 139.46350144 64.33203125 148.23828125 C63.33544175 149.23554767 62.33900045 150.23296219 61.34269714 151.23051453 C59.27801172 153.29665597 57.2115759 155.36102507 55.14379883 157.42407227 C52.5149262 160.04721862 49.89061194 162.67487254 47.26758289 165.30386066 C45.21974876 167.35533199 43.16950988 169.40438678 41.11856651 171.45274925 C39.68608473 172.88425605 38.25558699 174.31774739 36.82514954 175.751297 C32.29675672 180.26355794 27.72393057 184.65513918 22.86474609 188.81086731 C20.30044862 191.01111946 17.84740235 193.32203502 15.375 195.625 C10.72360398 199.92813159 5.91151948 203.96118433 0.97265625 207.93359375 C-2.07249802 210.46623959 -4.97686344 213.11484021 -7.875 215.8125 C-12.99293876 220.56335677 -18.29985836 224.9659823 -23.8125 229.25 C-25.40233415 230.50344607 -26.99213549 231.75693403 -28.58129883 233.01123047 C-30.35986011 234.41230836 -32.14240554 235.80818155 -33.92578125 237.203125 C-36.64068573 239.32716716 -39.34410855 241.46499119 -42.04296875 243.609375 C-51.95262817 251.44716429 -62.11386654 258.76608831 -72.61962891 265.78320312 C-74.62143664 267.12219899 -76.614888 268.47252101 -78.60546875 269.828125 C-127.79009602 303.19625747 -182.40797886 331.02004005 -241.8125 339.25 C-242.93172852 339.4250708 -244.05095703 339.6001416 -245.20410156 339.78051758 C-261.16992492 341.85780299 -279.25347001 341.52827617 -294.8125 337.25 C-296.50439453 336.79753906 -296.50439453 336.79753906 -298.23046875 336.3359375 C-315.15630019 331.45463089 -331.86628601 323.92153573 -341 308.0625 C-341.96776677 306.13993921 -342.90571745 304.20206504 -343.8125 302.25 C-344.22886719 301.37988281 -344.64523437 300.50976562 -345.07421875 299.61328125 C-351.13974439 284.69421642 -348.74182063 267.74827236 -342.8125 253.25 C-342.48540039 252.4353125 -342.15830078 251.620625 -341.82128906 250.78125 C-337.30626528 239.63672849 -332.3170914 228.74525511 -326.76123047 218.08251953 C-325.85575666 216.33355236 -324.97602329 214.57133035 -324.09765625 212.80859375 C-314.25030601 193.5233017 -301.74854047 175.57160642 -288.8125 158.25 C-288.07257812 157.2496875 -287.33265625 156.249375 -286.5703125 155.21875 C-281.0085426 147.7470893 -275.33122165 140.36129459 -269.6809082 132.95654297 C-266.16067938 128.34143495 -262.65453622 123.71767785 -259.1875 119.0625 C-253.73156306 111.76362253 -248.11265349 104.59095108 -242.50097656 97.41162109 C-240.98481092 95.47059584 -239.47228725 93.52680647 -237.9609375 91.58203125 C-231.26108114 82.9820878 -224.34857109 74.56623352 -217.39599609 66.16992188 C-216.00160894 64.47928657 -214.61646098 62.78197616 -213.23828125 61.078125 C-208.28411495 54.95674674 -203.24190226 48.95783314 -197.8125 43.25 C-197.08933594 42.48816406 -196.36617187 41.72632813 -195.62109375 40.94140625 C-162.90043969 8.99586075 -99.761923 5.80676901 -56.5625 2.125 C-55.23605469 2.01164307 -55.23605469 2.01164307 -53.8828125 1.89599609 C-35.9365833 0.46404733 -17.99847744 0.01290983 0 0 Z " fill="#FEFEFE" transform="translate(1111.8125,1088.75)"/>
<path d="M0 0 C0.88623047 -0.020625 1.77246094 -0.04125 2.68554688 -0.0625 C12.84034851 -0.12175486 21.97035809 2.44945349 29.6875 9.25 C52.5519192 36.20804883 48.18718925 102.23960065 45.46484375 136.01220703 C44.35191039 145.76017091 41.81333035 155.61702043 34.5625 162.625 C18.27023019 175.13576684 -7.76600657 172.41666164 -27.08984375 172.453125 C-28.63108508 172.45736607 -28.63108508 172.45736607 -30.2034626 172.46169281 C-35.65444306 172.47659763 -41.10539771 172.48587878 -46.55639648 172.49023438 C-50.98844748 172.49459496 -55.42030117 172.50840509 -59.85229492 172.53125 C-102.41715985 172.74581962 -102.41715985 172.74581962 -121.62890625 170.984375 C-122.85391342 170.87603333 -124.07892059 170.76769165 -125.34104919 170.65606689 C-137.18443142 169.39719107 -148.74752936 167.04742287 -157.3125 158.25 C-166.03830533 147.35882283 -165.58528551 133.54136186 -164.3125 120.25 C-160.49791667 99.02585809 -148.10753348 80.31659989 -134.3125 64.25 C-133.59191406 63.40566406 -132.87132812 62.56132813 -132.12890625 61.69140625 C-100.98098102 26.10170915 -47.62967731 0.27353727 0 0 Z " fill="#87C3E0" transform="translate(1122.3125,782.75)"/>
<path d="M0 0 C1.90072266 -0.04253906 1.90072266 -0.04253906 3.83984375 -0.0859375 C13.52995673 0.51236245 21.66762969 5.61221891 29.4375 11 C30.34798096 11.62028076 31.25846191 12.24056152 32.1965332 12.87963867 C52.82327319 27.04119913 71.65372629 43.59013456 87.0625 63.375 C87.66578125 64.09945312 88.2690625 64.82390625 88.890625 65.5703125 C130.0180214 115.16511404 130.0180214 115.16511404 128.0625 136.375 C122.3693502 151.31951822 96.89906459 160.92190139 83.46484375 167.03125 C49.50708081 181.99548001 -6.43918541 201.62098655 -43.27734375 187.69140625 C-52.58314079 183.08633488 -58.25546586 176.61762385 -61.86328125 166.875 C-71.13834242 134.15068163 -70.89838871 95.44153909 -71.11172485 61.63156128 C-71.12458743 59.68736034 -71.1445732 57.74321059 -71.16479492 55.79907227 C-71.17578902 43.12625792 -69.57906066 31.36562767 -61.1875 21.26953125 C-46.70431675 7.60102706 -19.55797168 0.19855809 0 0 Z " fill="#87C3E0" transform="translate(1290.9375,758.625)"/>
<path d="M0 0 C1.13842346 0.00115814 2.27684692 0.00231628 3.44976807 0.00350952 C73.89208682 0.144955 73.89208682 0.144955 90.32421875 15.7265625 C92.96076926 18.65927348 93.08765302 21.21509859 93.03076172 25.11083984 C92.18899064 31.71178901 87.58006243 37.22367797 83.3125 42.0625 C82.79026855 42.66175293 82.26803711 43.26100586 81.72998047 43.87841797 C76.15335927 50.16228556 70.05774689 55.77766112 63.75 61.3125 C62.67315987 62.27472032 61.59633696 63.23695991 60.51953125 64.19921875 C17.63630983 102.11213053 -36.38300786 132.51599558 -94.75 132.5625 C-95.50911682 132.56317474 -96.26823364 132.56384949 -97.050354 132.56454468 C-115.61667247 132.53829404 -134.7757409 131.4931659 -149.25 118.3125 C-154.40649769 112.74891038 -155.73989927 107.71090303 -155.55078125 100.265625 C-154.47317416 89.68548266 -148.48884004 81.56049827 -142.25 73.3125 C-141.82799316 72.75159668 -141.40598633 72.19069336 -140.97119141 71.61279297 C-137.81400102 67.44406401 -134.55829205 63.36203673 -131.25 59.3125 C-130.79238281 58.74901855 -130.33476562 58.18553711 -129.86328125 57.60498047 C-123.07775323 49.32026891 -115.74837027 41.54381194 -108.24938965 33.90548706 C-107.26806997 32.90381476 -106.29076098 31.89819356 -105.31799316 30.88821411 C-96.0201425 21.26342601 -85.85375416 13.97590931 -73.125 9.5625 C-72.32642578 9.27866455 -71.52785156 8.9948291 -70.70507812 8.70239258 C-65.12806981 6.79116449 -59.50992657 5.25094814 -53.75 4 C-53.07694824 3.85272461 -52.40389648 3.70544922 -51.71044922 3.55371094 C-34.62489655 0.18783735 -17.34631972 -0.0546631 0 0 Z " fill="#FDFEFE" transform="translate(496.25,1030.6875)"/>
<path d="M0 0 C13.00059909 8.85147172 16.55265577 24.53447677 19.9375 39 C20.13794922 39.81984375 20.33839844 40.6396875 20.54492188 41.484375 C24.11621532 56.75311811 24.33375914 72.02491719 24.375 87.625 C24.3811734 88.59802063 24.3873468 89.57104126 24.39370728 90.57354736 C24.52095098 121.83472771 19.72561311 152.38268746 14.7052002 183.14068604 C13.93367427 187.88104976 13.17345278 192.62322659 12.41210938 197.36523438 C10.93125904 206.57856948 9.43848879 215.78992579 7.9375 225 C6.18743863 225.01304688 4.43734891 225.02232531 2.68725586 225.0300293 C1.71267929 225.03560349 0.73810272 225.04117767 -0.26600647 225.04692078 C-3.83126013 224.98710141 -7.00509189 224.53052312 -10.5 223.8125 C-12.23056641 223.48185547 -12.23056641 223.48185547 -13.99609375 223.14453125 C-17.79467486 221.7267169 -18.82868054 220.35799018 -21.0625 217 C-22.06396484 213.65478516 -22.06396484 213.65478516 -22.7734375 209.7890625 C-22.90692596 209.0811557 -23.04041443 208.3732489 -23.177948 207.64389038 C-23.61352032 205.3068403 -24.02631369 202.96645458 -24.4375 200.625 C-24.73741382 198.9725578 -25.03787959 197.3202157 -25.33886719 195.66796875 C-28.48615034 178.2122271 -31.29655027 160.70125762 -33.7611084 143.13641357 C-34.03837565 141.17100536 -34.32396809 139.20677636 -34.61035156 137.24267578 C-40.65288754 94.71067056 -41.78061038 45.49986451 -21.25 6.5625 C-15.28984504 -0.41939581 -8.90683322 -2.9083537 0 0 Z " fill="#FDFEFE" transform="translate(1663.0625,745)"/>
<path d="M0 0 C2.79217064 13.13634631 4.92347048 26.36954386 7.0625 39.625 C7.41707999 41.8073303 7.77189629 43.98962223 8.12695312 46.171875 C8.95566853 51.2713489 9.7767795 56.37200148 10.59362793 61.47338867 C10.92973168 63.56310794 11.2721393 65.65181223 11.61621094 67.74023438 C18.93998764 113.12175051 27.11930208 175.89726244 2.8671875 217.44921875 C-0.56729371 222.1410937 -4.50039433 225.16679811 -10 227 C-15.98073922 227.58634698 -20.17816108 226.46385163 -25 223 C-41.39439588 206.99044909 -44.05521151 173.52364619 -44.43359375 151.93359375 C-44.47196745 148.10099187 -44.46386754 144.27016169 -44.4375 140.4375 C-44.43279694 139.41422607 -44.42809387 138.39095215 -44.42324829 137.33666992 C-44.17587253 97.63688691 -36.7903206 59.0079178 -29.56793213 20.0844574 C-29.19568819 18.06278879 -28.83784776 16.03840307 -28.49603271 14.0113678 C-28.33637024 13.11034836 -28.17670776 12.20932892 -28.01220703 11.28100586 C-27.8796048 10.49769394 -27.74700256 9.71438202 -27.61038208 8.90733337 C-27 7 -27 7 -24.34375 5.01171875 C-23.2403125 4.67785156 -22.136875 4.34398437 -21 4 C-19.7934375 3.61457031 -18.586875 3.22914062 -17.34375 2.83203125 C-16.0753125 2.49558594 -14.806875 2.15914062 -13.5 1.8125 C-12.2315625 1.46832031 -10.963125 1.12414063 -9.65625 0.76953125 C-6.28375096 0.05972109 -3.4243534 -0.05942544 0 0 Z " fill="#FCFEFE" transform="translate(1670,1104)"/>
<path d="M0 0 C23.31854819 1.48883873 48.18292593 8.86863046 64.375 26.5 C71.8861682 35.79852834 72.82976132 45.37148774 72 57 C69.67090222 67.50900144 62.561404 74.54056008 53.80859375 80.2890625 C44.15539696 86.16959128 34.50149633 90.0376413 23.75 93.4375 C22.64914062 93.79191162 21.54828125 94.14632324 20.4140625 94.51147461 C13.78172333 96.52564809 7.92932311 97.4989813 1 97 C1.13277344 95.79085938 1.26554687 94.58171875 1.40234375 93.3359375 C1.5808608 91.68230587 1.75923857 90.0286592 1.9375 88.375 C2.06801758 87.19164062 2.06801758 87.19164062 2.20117188 85.984375 C3.62415774 72.70317361 4.26441932 59.47460076 4.3125 46.125 C4.31644775 45.32161194 4.32039551 44.51822388 4.32446289 43.69049072 C4.35468325 30.45364608 3.24697009 17.91833363 0.3671875 4.95654297 C0 3 0 3 0 0 Z " fill="#FCFEFE" transform="translate(1635,989)"/>
</svg>
