<?xml version="1.0" encoding="UTF-8"?>
<svg version="1.1" xmlns="http://www.w3.org/2000/svg" width="2048" height="2048">
<path d="M0 0 C675.84 0 1351.68 0 2048 0 C2048 675.84 2048 1351.68 2048 2048 C1372.16 2048 696.32 2048 0 2048 C0 1372.16 0 696.32 0 0 Z " fill="#9AC1D6" transform="translate(0,0)"/>
<path d="M0 0 C675.84 0 1351.68 0 2048 0 C2048 675.84 2048 1351.68 2048 2048 C1372.16 2048 696.32 2048 0 2048 C0 1372.16 0 696.32 0 0 Z M864 168 C861.77838711 168.41931885 859.55671936 168.83833826 857.3348999 169.25656128 C855.37111218 169.62657963 853.40770921 169.99863835 851.44433594 170.37084961 C848.30193808 170.94484729 845.15801483 171.4581736 842 171.9375 C831.04218605 173.73410635 820.30738642 176.82789209 809.671875 179.97265625 C806.60080918 180.83190126 803.52936758 181.62005597 800.43359375 182.3828125 C761.93033435 191.94760085 724.3722115 205.22820382 688 221 C687.37309265 221.27132751 686.7461853 221.54265503 686.10028076 221.82220459 C677.69508981 225.46407992 669.33062711 229.19079741 661 233 C660.11296387 233.40557129 659.22592773 233.81114258 658.31201172 234.22900391 C647.17643415 239.34952474 636.27569981 244.86082204 625.48193359 250.66552734 C623.80944173 251.56478374 622.13524738 252.46088007 620.45947266 253.35400391 C590.95499244 269.08565736 562.23637159 286.43928337 534.88037109 305.68017578 C532.92224995 307.05457242 530.95577076 308.41639842 528.98828125 309.77734375 C518.27042764 317.22604998 507.89139993 325.08859876 497.54833984 333.046875 C495.12039101 334.90772868 492.68200131 336.75367633 490.23828125 338.59375 C483.34568965 343.79346371 476.64160589 349.02415851 470.3046875 354.90234375 C467.85395735 357.13292357 465.32476769 359.22656502 462.75 361.3125 C448.63022389 372.78234614 435.0699879 384.84912515 422.24609375 397.76171875 C419.9086103 400.11312961 417.53437205 402.35889258 415 404.5 C409.85697747 408.94935861 405.12043652 413.6545505 400.6875 418.8125 C397.92381971 422.02333755 395.01380404 425.02267165 392 428 C388.47245353 431.4904144 385.12615526 435.04644314 381.90234375 438.81640625 C379.99311701 441.00790059 378.02993459 443.14328931 376.05273438 445.2734375 C371.29430171 450.40291074 366.76022032 455.64449899 362.37109375 461.09765625 C359.68168307 464.38963671 356.90814734 467.5999148 354.125 470.8125 C348.18396173 477.70083719 342.55221533 484.79656821 337 492 C336.49355957 492.65339355 335.98711914 493.30678711 335.46533203 493.97998047 C310.32563751 526.42403683 287.51016453 560.45368563 267 596 C266.42749512 596.98661621 265.85499023 597.97323242 265.26513672 598.98974609 C232.31951986 655.96040912 204.88358354 716.89691507 186 780 C185.63865967 781.20257446 185.63865967 781.20257446 185.27001953 782.42944336 C184.65352369 784.49301126 184.04398174 786.55846964 183.4375 788.625 C183.24220703 789.285 183.04691406 789.945 182.84570312 790.625 C181.42629535 795.45191113 180.08902154 800.29876981 178.7746582 805.15527344 C178.27398419 806.9938658 177.76647472 808.83061648 177.25073242 810.66503906 C167.94812294 843.75562163 161.85410225 877.99403956 157 912 C156.82130371 913.21059082 156.64260742 914.42118164 156.45849609 915.66845703 C142.61074086 1011.52694696 149.47869531 1110.68990763 169.39990234 1205.15136719 C170.0016477 1208.00782156 170.5889443 1210.86701287 171.17578125 1213.7265625 C183.79077727 1274.3500664 205.37461079 1332.78162907 231 1389 C231.37318359 1389.82226074 231.74636719 1390.64452148 232.13085938 1391.49169922 C236.95041251 1402.07346667 242.25864202 1412.35990806 247.73535156 1422.61474609 C248.96238811 1424.9290602 250.16846041 1427.25294742 251.3671875 1429.58203125 C260.99347394 1448.23320933 271.64132189 1466.35193603 283 1484 C283.82902832 1485.28874023 283.82902832 1485.28874023 284.67480469 1486.60351562 C296.21054761 1504.49290525 307.81939268 1522.27159463 321 1539 C322.67270767 1541.16203905 324.33607013 1543.33120252 326 1545.5 C326.83457188 1546.58338228 327.66920719 1547.6667157 328.50390625 1548.75 C330.1662381 1550.91018758 331.81896361 1553.07725541 333.46484375 1555.25 C338.5649995 1561.96481846 343.85738522 1568.46502868 349.33984375 1574.87109375 C351.81779148 1577.77051583 354.22659018 1580.72181411 356.625 1583.6875 C364.09889083 1592.84861839 372.21745717 1601.42650962 380.30078125 1610.046875 C382.66407371 1612.5675557 385.01567909 1615.09812229 387.35546875 1617.640625 C395.35887362 1626.30592256 403.60683123 1634.71345465 411.9375 1643.0625 C412.47597565 1643.60356384 413.01445129 1644.14462769 413.56924438 1644.7020874 C418.95367386 1650.10695485 424.35292488 1655.44043687 430.15600586 1660.40112305 C433.47769279 1663.28126706 436.62832463 1666.34478994 439.8125 1669.375 C445.1924857 1674.46063619 450.64503788 1679.29078536 456.4375 1683.90234375 C459.16146959 1686.13217861 461.73335185 1688.47954118 464.3125 1690.875 C470.03222716 1696.13162425 476.07296916 1700.87816407 482.21923828 1705.61767578 C483.94776411 1706.95945166 485.66169073 1708.31756862 487.37109375 1709.68359375 C496.68395983 1717.11494977 506.28927108 1724.0994306 516 1731 C516.77053711 1731.55026855 517.54107422 1732.10053711 518.33496094 1732.66748047 C584.92929787 1780.16552378 657.39939201 1818.25075962 785.453125 1862.50390625 C790.25026932 1863.77809451 795.0028564 1865.17613498 799.75634766 1866.60351562 C846.67002451 1880.65236748 895.75862564 1888.47887179 944.4375 1893.1875 C945.72945786 1893.31451294 945.72945786 1893.31451294 947.04751587 1893.4440918 C973.9860764 1896.06995447 1000.89371529 1896.28191742 1027.9375 1896.3125 C1028.88185535 1896.31379787 1029.82621071 1896.31509575 1030.79918289 1896.31643295 C1059.57547263 1896.34636334 1088.01018197 1895.80229366 1116.60766602 1892.28778076 C1118.98491882 1892.00181416 1121.36354486 1891.73749629 1123.74414062 1891.48095703 C1163.20589779 1887.21975598 1203.90089136 1880.41716434 1241.9375 1868.9375 C1243.52947607 1868.46585232 1245.12193893 1867.99584517 1246.71484375 1867.52734375 C1247.54927002 1867.28129395 1248.38369629 1867.03524414 1249.2434082 1866.78173828 C1252.35003628 1865.90073367 1255.47398643 1865.10424739 1258.6015625 1864.30078125 C1269.67939752 1861.3960586 1280.55281034 1857.79832814 1291.4375 1854.25 C1292.57573212 1853.87928375 1293.71396423 1853.5085675 1294.88668823 1853.12661743 C1316.65746665 1846.0047021 1337.9247056 1837.96031227 1359 1829 C1359.63413818 1828.73183472 1360.26827637 1828.46366943 1360.92163086 1828.18737793 C1388.92873458 1816.33936813 1416.56961142 1803.05116236 1443 1788 C1444.02351563 1787.42040527 1445.04703125 1786.84081055 1446.1015625 1786.24365234 C1465.48480214 1775.24805862 1484.62354899 1763.87129126 1503.04980469 1751.32617188 C1505.18768935 1749.87236748 1507.33215989 1748.42854593 1509.4765625 1746.984375 C1520.87257777 1739.27991059 1531.98083209 1731.23216312 1543 1723 C1544.41912436 1721.94511542 1545.83839069 1720.8904218 1547.2578125 1719.8359375 C1562.43261901 1708.53708824 1577.48938878 1697.00889664 1591.46875 1684.24609375 C1594.08139118 1681.92777789 1596.77158932 1679.74292932 1599.5 1677.5625 C1604.11854224 1673.82988406 1608.3044578 1669.83389154 1612.41796875 1665.5546875 C1615.14237508 1662.85913268 1617.98835405 1660.36464822 1620.88354492 1657.85595703 C1624.35020398 1654.81598216 1627.70469048 1651.65914183 1631.0625 1648.5 C1631.73087891 1647.87480469 1632.39925781 1647.24960938 1633.08789062 1646.60546875 C1641.50337587 1638.75045392 1641.50337587 1638.75045392 1649.25 1630.25 C1652.1828162 1626.84159199 1655.30100189 1623.65630156 1658.5 1620.5 C1662.13852481 1616.90471122 1665.61578323 1613.24108691 1668.93359375 1609.34765625 C1671.83432655 1606.05211672 1674.86234972 1602.88053663 1677.875 1599.6875 C1682.8140832 1594.43741103 1687.50022264 1589.0978371 1692 1583.46484375 C1693.89151029 1581.13370509 1695.85482325 1578.90725066 1697.875 1576.6875 C1703.23894534 1570.71691798 1708.09414202 1564.34670271 1713 1558 C1713.83463348 1556.92447767 1714.66926883 1555.84895678 1715.50390625 1554.7734375 C1718.01491654 1551.52484312 1720.5114307 1548.2657884 1723 1545 C1723.47050781 1544.38398926 1723.94101563 1543.76797852 1724.42578125 1543.13330078 C1730.93398217 1534.59665334 1737.1909626 1525.93396185 1743.22265625 1517.0546875 C1745.57534376 1513.59873404 1747.99356167 1510.19419255 1750.42919922 1506.79638672 C1762.09426853 1490.48643711 1772.30720742 1473.33980344 1782.29150391 1455.96289062 C1783.87193511 1453.22209139 1785.47054095 1450.49286238 1787.07421875 1447.765625 C1806.67256843 1414.12972488 1823.07390958 1378.53262482 1837.5625 1342.4375 C1837.8590448 1341.6993808 1838.1555896 1340.9612616 1838.46112061 1340.20077515 C1841.5890264 1332.38954548 1844.5626275 1324.57642602 1847.15527344 1316.56762695 C1847.86593647 1314.40749889 1848.62811657 1312.29154971 1849.44921875 1310.171875 C1851.82334203 1303.9540093 1853.77927087 1297.58551736 1855.8125 1291.25 C1856.14539536 1290.21439438 1856.14539536 1290.21439438 1856.48501587 1289.15786743 C1868.50383294 1251.74093825 1878.04260587 1214.25512377 1884.625 1175.5 C1884.81318298 1174.39312836 1885.00136597 1173.28625671 1885.19525146 1172.14584351 C1886.50024799 1164.43637499 1887.76460804 1156.72091638 1889 1149 C1889.17660156 1147.90264526 1889.35320312 1146.80529053 1889.53515625 1145.67468262 C1892.31302112 1128.25238903 1894.32389144 1110.83375558 1895.75 1093.25 C1895.80338531 1092.59755184 1895.85677063 1091.94510368 1895.91177368 1091.27288437 C1902.12246761 1014.97633918 1897.36136927 938.13055566 1883 863 C1882.74875987 861.67075473 1882.49761585 860.34149128 1882.24658203 859.01220703 C1878.50753497 839.42391177 1873.68535834 820.13883284 1868.50726318 800.8895874 C1868.05273071 799.19642523 1867.60341457 797.50186474 1867.15478516 795.80712891 C1853.01688439 742.80589142 1830.66506939 692.30970239 1807 643 C1806.24323975 641.4221875 1806.24323975 641.4221875 1805.47119141 639.8125 C1799.41804948 627.2650965 1792.70949336 615.13613109 1785.75927734 603.06542969 C1783.94713005 599.90787745 1782.15405267 596.74003034 1780.36328125 593.5703125 C1769.27989177 574.03723906 1757.13194947 555.31374683 1744.30615234 536.88720703 C1742.95953436 534.94153282 1741.62837859 532.98603914 1740.30078125 531.02734375 C1733.8103639 521.46740082 1727.01259912 512.18276891 1720 503 C1719.3205835 502.10788818 1719.3205835 502.10788818 1718.62744141 501.19775391 C1711.03421236 491.23461016 1703.22730162 481.45499753 1695.2734375 471.77734375 C1693.78982587 469.96489036 1692.31539763 468.1448694 1690.8515625 466.31640625 C1686.24844041 460.59158473 1681.44759851 455.12142761 1676.42456055 449.76611328 C1673.74520789 446.90819801 1671.12259521 444.01402086 1668.55078125 441.05859375 C1657.74530531 428.65497967 1646.11532702 417.01317437 1634.5 405.375 C1633.58826523 404.45938293 1633.58826523 404.45938293 1632.65811157 403.52526855 C1623.9252922 394.76006797 1623.9252922 394.76006797 1614.73095703 386.48583984 C1611.79252967 383.96351701 1609.00379626 381.28182954 1606.1875 378.625 C1601.11864488 373.8775878 1595.92315995 369.37841371 1590.5 365.03515625 C1588.15940954 363.12976933 1585.9193189 361.15579109 1583.6875 359.125 C1579.49589565 355.35701524 1575.09979066 351.88110785 1570.65185547 348.42504883 C1565.98022585 344.79024449 1561.38986801 341.06501924 1556.8125 337.3125 C1551.63195723 333.08244811 1546.40744639 328.97700138 1540.953125 325.1015625 C1538.77862793 323.55410294 1536.6269726 321.98880744 1534.484375 320.3984375 C1512.48515022 304.15685405 1489.46668448 289.02919343 1466 275 C1465.11248047 274.46568359 1464.22496094 273.93136719 1463.31054688 273.38085938 C1417.74024226 246.02593857 1369.34301852 222.07388925 1319.05541992 204.72045898 C1316.46541484 203.81261898 1313.90315039 202.83402617 1311.3359375 201.86401367 C1296.83624528 196.50088546 1282.16382205 191.19809749 1267.13525391 187.53662109 C1262.23795279 186.30585642 1257.3731981 184.94729211 1252.5 183.625 C1248.00086928 182.41342051 1243.500527 181.20638119 1239 180 C1237.95021973 179.71801758 1236.90043945 179.43603516 1235.81884766 179.14550781 C1224.26278203 176.04996955 1212.7662856 173.18535769 1201 171 C1199.44644618 170.68311617 1197.89307667 170.36532802 1196.33984375 170.046875 C1189.50738222 168.67355474 1182.62690086 167.59955469 1175.74609375 166.5 C1171.50955229 165.80920088 1167.37793885 165.10054895 1163.2265625 163.99609375 C1156.79432652 162.30340007 1150.09471718 161.81816053 1143.5 161.0625 C1141.46285316 160.82457967 1139.42589014 160.58514292 1137.38897705 160.3452301 C1135.9623358 160.17765666 1134.53553141 160.01146717 1133.10858154 159.84654236 C1128.86971896 159.35319238 1124.63743182 158.82497874 1120.40722656 158.26196289 C1106.20581546 156.38570715 1092.05175337 155.10891008 1077.75 154.3125 C1076.09390717 154.21869049 1076.09390717 154.21869049 1074.40435791 154.12298584 C1003.7357613 150.21224702 933.51241464 154.85362182 864 168 Z " fill="#FEFEFE" transform="translate(0,0)"/>
<path d="M0 0 C2.85496852 -0.00449275 5.70991315 -0.01219588 8.56487274 -0.02053452 C41.50119811 -0.10352714 74.4095345 0.62583451 107.15648651 4.43292618 C108.07399689 4.53636337 108.99150726 4.63980057 109.93682098 4.74637222 C140.98335498 8.27805061 170.9677758 14.73555721 200.53148651 24.87042618 C201.43334686 25.17845169 202.33520721 25.4864772 203.26439667 25.80383682 C217.35387792 30.63110083 231.04664125 35.90061903 244.53148651 42.24542618 C246.02546421 42.92690096 247.52023563 43.60663882 249.01586151 44.28448868 C257.9121284 48.35077783 266.57004501 52.82391041 275.19945526 57.42511368 C279.07905955 59.48921955 282.98031018 61.50603071 286.89476776 63.50323868 C308.04383152 74.30874905 328.48264339 86.06436796 348.4562912 98.91095352 C350.39735623 100.15917252 352.34247835 101.40074118 354.28929901 102.63995743 C365.51845624 109.80114092 376.57396103 117.21312313 387.56273651 124.7371254 C420.96996346 147.64782859 420.96996346 147.64782859 460.03929901 156.92901993 C461.53262083 157.07118519 463.02585448 157.21427931 464.51900482 157.35823441 C468.44081451 157.73435946 472.36350257 158.100265 476.28655243 158.46319962 C483.22608281 159.10659268 490.16414667 159.76571445 497.10179901 160.42901993 C497.86606705 160.50206596 498.63033508 160.575112 499.41776276 160.65037155 C524.9694061 163.10293046 550.41865268 166.14591025 575.78148651 170.12042618 C576.88771362 170.29217361 577.99394073 170.46392105 579.13368988 170.64087296 C604.1945607 174.54069315 628.91409951 179.36321147 653.53002167 185.50421524 C656.54043739 186.24763659 659.5562397 186.96408471 662.57445526 187.67511368 C699.02264709 196.3528325 740.76494356 209.15211819 771.53148651 231.24542618 C772.40740448 231.86610977 772.40740448 231.86610977 773.30101776 232.49933243 C778.93185255 236.81868165 782.95426678 242.35045104 785.48851776 248.93683243 C786.00043671 250.25421402 786.00043671 250.25421402 786.52269745 251.59820938 C786.85559784 252.47179092 787.18849823 253.34537247 787.53148651 254.24542618 C792.03858208 266.01793019 796.8738901 277.39655775 802.7621994 288.55890274 C808.50308768 299.60713074 810.0785871 308.90981148 809.96898651 321.37042618 C809.96641846 322.398237 809.96641846 322.398237 809.96379852 323.44681168 C809.91326849 335.20295027 808.48329071 345.22150771 804.42211151 356.26105118 C801.87019482 364.81221063 803.3416553 372.67719805 806.62523651 380.74542618 C808.41345536 385.67844368 808.30203533 389.49417886 806.15648651 394.37042618 C788.14947152 414.09239497 747.05971211 414.39970608 721.96898651 418.05792618 C721.25684998 418.16315598 720.54471344 418.26838577 719.81099701 418.37680435 C709.73068159 419.85398734 699.70705289 420.75148315 689.53148651 421.24542618 C689.60077362 420.38304337 689.67006073 419.52066055 689.74144745 418.63214493 C690.45717779 408.98379431 690.74857694 399.3766278 690.77172089 389.70245743 C690.78147751 387.24769191 690.8126682 384.79374892 690.84398651 382.33917618 C690.911179 372.22981243 689.94021367 363.07507378 687.53148651 353.24542618 C687.22720368 351.94273834 686.92382864 350.63983814 686.62133026 349.33673477 C679.62624334 319.94516897 660.37286737 291.6761192 634.63207245 275.48517227 C622.0443203 268.05599916 608.72598191 262.63024043 594.53148651 259.24542618 C593.30043182 258.9283168 592.06937714 258.61120743 590.80101776 258.28448868 C558.06315417 250.88878478 524.46992126 258.87276233 496.4977951 276.52911758 C468.15894575 295.19865657 448.22632809 325.51605513 441.33617401 358.78839493 C438.46873106 373.81130257 436.89112136 389.07916874 439.53148651 404.24542618 C439.6195266 406.32731542 439.66172205 408.4116828 439.65648651 410.49542618 C439.65906464 411.53183243 439.66164276 412.56823868 439.66429901 413.63605118 C439.53148651 416.24542618 439.53148651 416.24542618 438.53148651 418.24542618 C425.35685394 418.26992694 412.18222763 418.2869699 399.00757599 418.29723835 C392.87263375 418.30219647 386.73770811 418.30870575 380.60277557 418.32086563 C341.99337416 418.39485727 303.3893763 418.13072815 264.78148651 417.80792618 C209.73515933 417.34803157 154.68860063 417.01331297 99.64110613 416.72678146 C96.47409204 416.7102965 93.30707813 416.69377911 90.14006424 416.67725682 C65.56797141 416.54914836 40.9958665 416.42346235 16.42375457 416.29907573 C-0.14808637 416.21518619 -16.71992281 416.13045717 -33.29175568 416.04498672 C-34.95286123 416.03641982 -34.95286123 416.03641982 -36.64752448 416.02767985 C-42.20879855 415.99899402 -47.77007255 415.97029415 -53.33134651 415.94158733 C-98.71039116 415.70736242 -144.08944778 415.47553144 -189.46851349 415.24542618 C-189.47785919 414.04756485 -189.4872049 412.84970352 -189.4968338 411.61554337 C-189.53744022 407.06750906 -189.60337289 402.52010247 -189.67603302 397.97247696 C-189.7038412 396.02366727 -189.72524974 394.07475319 -189.73950958 392.12579727 C-190.03425897 354.06382589 -202.96892848 318.58809496 -229.53101349 290.80792618 C-246.92761714 273.93345797 -270.35725479 261.01756857 -294.53101349 257.49542618 C-295.35899445 257.3747377 -296.1869754 257.25404922 -297.04004669 257.12970352 C-332.77912281 252.50998932 -365.40674428 260.43026923 -394.79663849 281.16730118 C-397.4910068 283.16935086 -397.4910068 283.16935086 -399.70288849 285.51105118 C-401.46851349 287.24542618 -401.46851349 287.24542618 -403.46851349 287.24542618 C-403.71601349 287.82679337 -403.96351349 288.40816055 -404.21851349 289.00714493 C-405.65595005 291.58105476 -407.2849579 293.08102853 -409.46851349 295.05792618 C-425.63771723 310.91568458 -434.94984451 333.24995136 -439.91309357 354.92340469 C-440.31889542 356.61992399 -440.76447962 358.30706642 -441.23291779 359.98736954 C-443.78748932 369.68830321 -444.01808701 379.09645915 -444.15601349 389.05792618 C-444.18927323 390.73308158 -444.22377049 392.40821288 -444.25952911 394.0833168 C-444.34342482 398.13721758 -444.41069 402.19107316 -444.46851349 406.24542618 C-458.88338332 405.07501235 -473.0997514 403.22897403 -487.37134552 400.89630508 C-490.59642177 400.36995153 -493.82327398 399.85578984 -497.05054474 399.34308243 C-509.60679762 397.32804031 -522.05988492 395.02964803 -534.46851349 392.24542618 C-535.99701935 391.90583878 -535.99701935 391.90583878 -537.55640411 391.55939102 C-557.73235981 386.9659628 -578.1037575 381.24265431 -591.46851349 364.24542618 C-603.71142356 343.81671074 -606.28895659 319.57964343 -605.46851349 296.24542618 C-605.44659943 295.13812149 -605.42468536 294.0308168 -605.40210724 292.88995743 C-604.50613732 282.1240966 -598.65760877 272.56117573 -593.8718338 263.07843399 C-583.3375528 241.81194186 -580.61937944 221.31922554 -578.78073883 197.9876442 C-577.80683867 185.66082359 -576.6598768 173.42673898 -574.46851349 161.24542618 C-574.2790213 160.12780899 -574.08952911 159.0101918 -573.89429474 157.85870743 C-572.16978788 149.8073474 -567.91294722 144.30050751 -561.14429474 139.64776993 C-551.01538423 134.05321871 -539.04538647 133.92895575 -527.74689484 133.04159927 C-510.89751111 131.7022354 -494.18216291 129.79388929 -477.46851349 127.24542618 C-476.56069122 127.11088028 -475.65286896 126.97633438 -474.71753693 126.83771133 C-442.68762555 121.91531163 -413.7024231 107.41499549 -385.0749588 93.00616837 C-383.60041229 92.26409134 -383.60041229 92.26409134 -382.09607697 91.50702286 C-380.09534131 90.49978174 -378.09493387 89.49188839 -376.09485626 88.48334122 C-359.44614759 80.09696853 -342.62356871 72.25519383 -325.51085663 64.86603165 C-320.43128311 62.67252689 -315.37579554 60.42781526 -310.32398224 58.17120743 C-257.97275354 34.83206012 -204.43389804 16.72878831 -147.46851349 9.24542618 C-146.32398712 9.09363907 -145.17946075 8.94185196 -144.00025177 8.78546524 C-135.15998931 7.62277978 -126.31312829 6.52492721 -117.45813751 5.48041153 C-115.57367288 5.25784607 -113.68953958 5.03248049 -111.80542755 4.80694962 C-74.63416623 0.4405393 -37.38082494 0.04863335 0 0 Z " fill="#FEFEFE" transform="translate(922.4685134887695,792.7545738220215)"/>
<path d="M0 0 C5.49907037 4.64437615 9.85536623 9.90210742 14.1875 15.625 C14.86554688 16.46546875 15.54359375 17.3059375 16.2421875 18.171875 C33.46163616 40.28245109 38.82309555 68.21428689 35.57055664 95.60424805 C33.1940817 111.51196948 25.90267222 126.90591934 16.1875 139.625 C15.55972656 140.51832031 14.93195313 141.41164063 14.28515625 142.33203125 C0.90437286 160.28436828 -19.79547167 170.51432216 -40.8125 176.625 C-41.79734375 176.9446875 -42.7821875 177.264375 -43.796875 177.59375 C-66.19226607 183.99243316 -92.47415554 179.38937907 -112.8125 168.625 C-116.97333218 166.15723147 -120.91300778 163.48571536 -124.8125 160.625 C-125.66457031 160.00882813 -126.51664063 159.39265625 -127.39453125 158.7578125 C-143.80928226 146.29811173 -154.2394896 129.96443485 -160.8125 110.625 C-161.22628906 109.4184375 -161.64007813 108.211875 -162.06640625 106.96875 C-165.62275346 94.97382282 -165.38503188 83.03968022 -164.8125 70.625 C-164.77382813 69.77518555 -164.73515625 68.92537109 -164.6953125 68.04980469 C-164.06860616 56.71840102 -161.46204203 46.95406275 -156.8125 36.625 C-156.53744629 36.00608887 -156.26239258 35.38717773 -155.97900391 34.74951172 C-152.16897654 26.31572966 -147.60999991 18.82828466 -141.8125 11.625 C-141.14734375 10.78324219 -140.4821875 9.94148438 -139.796875 9.07421875 C-104.42140692 -33.04879232 -40.98172002 -31.86200486 0 0 Z " fill="#FEFEFE" transform="translate(669.8125,1098.375)"/>
<path d="M0 0 C18.68006713 14.93892886 32.23868235 33.60085838 38.75 56.8125 C39.0490625 57.78445313 39.348125 58.75640625 39.65625 59.7578125 C46.60099084 85.92919695 40.73625354 113.87821227 27.57421875 137.05859375 C23.81295174 142.73673773 19.30808019 147.76845436 14.75 152.8125 C14.11449219 153.54339844 13.47898437 154.27429687 12.82421875 155.02734375 C-2.05698731 171.16239865 -22.39056252 179.05298527 -43.25 183.8125 C-44.06339844 184.01359375 -44.87679688 184.2146875 -45.71484375 184.421875 C-70.00946683 188.16526839 -96.52549059 181.23830153 -116.25 166.8125 C-134.20897518 153.08015922 -147.17334648 137.02022893 -155.25 115.8125 C-155.72566406 114.57886719 -155.72566406 114.57886719 -156.2109375 113.3203125 C-156.9850407 111.16661943 -157.64622568 109.01967499 -158.25 106.8125 C-158.45496094 106.0803125 -158.65992188 105.348125 -158.87109375 104.59375 C-163.50151814 84.41148646 -160.2945443 62.2643377 -151.25 43.8125 C-150.68539063 42.63300781 -150.12078125 41.45351562 -149.5390625 40.23828125 C-144.88137398 30.83892707 -139.10338977 22.73385073 -132.25 14.8125 C-131.19039062 13.58080078 -131.19039062 13.58080078 -130.109375 12.32421875 C-97.2216252 -23.01128342 -38.89379754 -27.78128396 0 0 Z " fill="#FEFEFE" transform="translate(1546.25,1093.1875)"/>
<path d="M0 0 C1.12027588 0.01063477 2.24055176 0.02126953 3.39477539 0.03222656 C20.02830819 0.38510984 36.56821461 2.44880788 53.0625 4.5 C54.31772461 4.65484863 55.57294922 4.80969727 56.86621094 4.96923828 C81.37336011 8.08350168 106.62330353 12.52774939 130.0625 20.5 C131.04895508 20.82806641 132.03541016 21.15613281 133.05175781 21.49414062 C150.62737928 27.37844426 167.40191469 34.39746182 184.0625 42.5 C184.95372559 42.92780762 185.84495117 43.35561523 186.76318359 43.79638672 C229.21082565 64.19877101 270.99066454 89.78256252 306.5715332 120.79101562 C309.89761197 123.68187594 313.27335671 126.48723624 316.72265625 129.23046875 C317.50600342 129.85783936 318.28935059 130.48520996 319.09643555 131.1315918 C320.632951 132.35788784 322.17719967 133.57456914 323.72973633 134.78051758 C324.42478271 135.33763428 325.1198291 135.89475098 325.8359375 136.46875 C326.77058838 137.20254883 326.77058838 137.20254883 327.72412109 137.95117188 C329.0625 139.5 329.0625 139.5 329.0625 143.5 C325.98944965 144.52435012 323.8822808 144.63350968 320.6628418 144.64379883 C319.546418 144.64747971 318.4299942 144.65116058 317.27973938 144.654953 C316.05691757 144.65151382 314.83409576 144.64807465 313.57421875 144.64453125 C312.2874675 144.64217972 311.00071625 144.63982819 309.67497253 144.6374054 C294.52581607 144.57373588 279.39899013 143.9392028 264.26575851 143.28943634 C260.97711935 143.14921647 257.68829743 143.01355249 254.39947224 142.8777771 C230.87262257 141.90600129 207.34885579 140.86282572 183.82739258 139.76855469 C166.32924301 138.95583047 148.82962126 138.18351585 131.32866096 137.43358612 C127.49443162 137.26912486 123.66022861 137.10406336 119.82603455 136.93878174 C117.91274211 136.85631321 117.91274211 136.85631321 115.96079731 136.77217865 C113.3704281 136.66051111 110.78005984 136.54882178 108.1896925 136.4371109 C100.53696003 136.1074469 92.88407761 135.78157359 85.23107052 135.45835209 C80.37970443 135.25250084 75.52850403 135.04292053 70.67733574 134.83246422 C68.42325901 134.73544032 66.16911695 134.6399188 63.91490364 134.5461216 C56.62808482 134.24245671 49.34499914 133.89380598 42.0625 133.5 C40.90168915 133.43981312 39.7408783 133.37962624 38.54489136 133.31761551 C34.98341345 133.12459055 31.4246181 132.90417991 27.86523438 132.67602539 C26.22604916 132.59016882 26.22604916 132.59016882 24.55374908 132.50257778 C18.54665167 132.08419409 14.62964491 131.54926637 10.0625 127.5 C7.5586985 123.48950743 6.43350815 119.56718046 5.44921875 114.96875 C5.03639648 113.06440186 5.03639648 113.06440186 4.61523438 111.12158203 C4.32650133 109.7477889 4.03809879 108.37392628 3.75 107 C3.44252643 105.56223683 3.13457575 104.12457562 2.82617188 102.68701172 C0.30984519 90.90078301 -2.05658175 79.08446338 -4.39453125 67.26171875 C-5.95355814 59.389294 -7.55261285 51.52534361 -9.16772461 43.66424561 C-9.46686592 42.20754882 -9.76539343 40.75072582 -10.06323242 39.29376221 C-11.70940699 31.24336621 -13.4281457 23.21919492 -15.34887695 15.22900391 C-16.18164946 11.36806194 -16.50892021 8.42851397 -15.9375 4.5 C-11.52600135 -0.71358931 -6.31871597 -0.11040442 0 0 Z " fill="#99C1D6" transform="translate(973.9375,823.5)"/>
<path d="M0 0 C1.49724173 -0.01377483 2.99444948 -0.03206528 4.49157715 -0.05511475 C6.60915847 -0.08514737 8.72591734 -0.09465465 10.84368896 -0.09896851 C12.08022217 -0.10831421 13.31675537 -0.11765991 14.59075928 -0.12728882 C18.48770006 0.27829527 20.7705223 1.03224594 24.01556396 3.22915649 C26.88396559 7.53797095 27.63240821 11.82220791 28.15618896 16.87759399 C28.24387543 17.62670044 28.33156189 18.37580688 28.42190552 19.14761353 C28.61207643 20.7763812 28.79752167 22.40570611 28.97875977 24.03549194 C29.47714182 28.49908178 30.01627915 32.95773742 30.55462646 37.41665649 C30.72500931 38.83438858 30.72500931 38.83438858 30.89883423 40.28076172 C32.29449536 51.74815486 33.96151822 63.17541597 35.64056396 74.60415649 C35.78659058 75.60501282 35.93261719 76.60586914 36.08306885 77.63705444 C37.63287213 88.25065373 39.21935933 98.85267665 41.08773804 109.41564941 C43.59408717 123.89459066 43.59408717 123.89459066 40.93084717 127.83340454 C38.00658355 129.96444535 35.56420955 129.61831277 31.97259521 129.62759399 C30.84531761 129.63380264 30.84531761 129.63380264 29.69526672 129.64013672 C27.07251073 129.64655287 24.45072549 129.62663497 21.82806396 129.60415649 C20.87901184 129.60016846 19.92995972 129.59618042 18.95214844 129.59207153 C-18.70279156 129.41388277 -56.36202758 127.66921444 -93.98443604 126.22915649 C-95.05095146 126.18840752 -96.11746689 126.14765854 -97.21630096 126.10567474 C-112.6744921 125.51467046 -128.13214744 124.91078669 -143.58934784 124.29441833 C-146.74594688 124.16868745 -149.90257383 124.04367575 -153.0592041 123.91873169 C-165.48916238 123.42512655 -177.91782657 122.90775514 -190.34497833 122.34770966 C-192.10335863 122.26873073 -193.86177674 122.19058925 -195.62023163 122.11328888 C-200.59369218 121.89454182 -205.56617156 121.66282899 -210.53796959 121.40896797 C-212.02357196 121.33477227 -213.50938764 121.26470381 -214.99540138 121.19926262 C-225.63010721 120.72518534 -235.03366961 120.05247049 -243.05865479 112.52603149 C-251.93778106 101.9359174 -254.08140132 90.59304305 -253.23638916 77.20376587 C-252.62965574 72.44866906 -250.30988039 69.50877779 -246.98443604 66.22915649 C-246.28834229 65.53177368 -245.59224854 64.83439087 -244.87506104 64.11587524 C-206.70209695 29.89393451 -147.80034152 16.5766532 -98.45733643 9.73184204 C-94.93621428 9.22217663 -91.43261626 8.64571291 -87.92584229 8.04556274 C-69.64928305 4.92490404 -51.46938592 2.7147278 -32.98443604 1.22915649 C-32.13736084 1.15713013 -31.29028564 1.08510376 -30.4175415 1.01089478 C-20.29982201 0.17127773 -10.14772003 0.08446233 0 0 Z " fill="#99C1D7" transform="translate(890.9844360351563,823.7708435058594)"/>
<path d="M0 0 C0 3 0 3 -1.94018555 5.28076172 C-3.27496948 6.59197998 -3.27496948 6.59197998 -4.63671875 7.9296875 C-5.11317337 8.40189728 -5.58962799 8.87410706 -6.08052063 9.36062622 C-7.60928867 10.87259667 -9.14811233 12.37385052 -10.6875 13.875 C-11.70576379 14.87821077 -12.72335007 15.88210972 -13.74023438 16.88671875 C-15.62696157 18.74898635 -17.51819114 20.60619733 -19.4128418 22.46044922 C-21.95756074 24.95834169 -24.48095997 27.47624512 -27 30 C-27.95473737 30.94501347 -28.91027656 31.88921878 -29.8671875 32.83203125 C-34.93731636 37.84878155 -39.90270415 42.87459017 -44.53125 48.30859375 C-46.57559523 50.66285302 -48.76233199 52.83014011 -51 55 C-51.66 54.67 -52.32 54.34 -53 54 C-50.6478496 51.477279 -48.29290413 48.95718302 -45.9375 46.4375 C-45.28072266 45.73302734 -44.62394531 45.02855469 -43.94726562 44.30273438 C-40.20041515 40.29748042 -36.39174382 36.3745459 -32.49829102 32.51196289 C-30.74550179 30.7431795 -29.10680345 28.90193061 -27.5 27 C-22.44099072 21.15228104 -16.98785902 15.95008845 -11.1328125 10.91015625 C-7.25902292 7.44077327 -3.63787505 3.71366411 0 0 Z " fill="#ABC5D3" transform="translate(434,386)"/>
<path d="M0 0 C-0.93199219 0.3403125 -1.86398437 0.680625 -2.82421875 1.03125 C-11.92879977 4.4579247 -19.89104629 8.61226347 -28 14 C-28 13.01 -28 12.02 -28 11 C-25.953125 9.5 -25.953125 9.5 -23.25 8 C-20.65593091 6.54368051 -18.19466134 5.14783078 -15.82421875 3.34765625 C-13.57005646 1.68237576 -11.74409727 1.46850441 -9 1 C-8.154375 0.62875 -7.30875 0.2575 -6.4375 -0.125 C-3.68817011 -1.11193893 -2.71527596 -0.81515684 0 0 Z " fill="#A7C2CE" transform="translate(1459,1080)"/>
<path d="M0 0 C0.99 0.33 1.98 0.66 3 1 C-0.94802553 3.22348922 -4.8968033 5.4456011 -8.84765625 7.6640625 C-11.23521326 9.0051446 -13.61806534 10.35294996 -15.99609375 11.7109375 C-16.78113281 12.15695312 -17.56617188 12.60296875 -18.375 13.0625 C-19.04273438 13.44535156 -19.71046875 13.82820313 -20.3984375 14.22265625 C-22 15 -22 15 -24 15 C-23 12 -23 12 -19.6484375 10.09765625 C-18.22882001 9.40915508 -16.80406149 8.7311785 -15.375 8.0625 C-13.96517601 7.38874434 -12.55631306 6.71297389 -11.1484375 6.03515625 C-10.45588867 5.70531738 -9.76333984 5.37547852 -9.04980469 5.03564453 C-7.01930716 4.00975476 -5.10366014 2.8707173 -3.1640625 1.68359375 C-2.11992188 1.12800781 -1.07578125 0.57242187 0 0 Z " fill="#A4C0CD" transform="translate(1443,1785)"/>
<path d="M0 0 C1.32 0.33 2.64 0.66 4 1 C-0.62 5.62 -5.24 10.24 -10 15 C-10.33 14.01 -10.66 13.02 -11 12 C-10.34 12 -9.68 12 -9 12 C-8.67 10.68 -8.34 9.36 -8 8 C-7.01 8 -6.02 8 -5 8 C-5 7.34 -5 6.68 -5 6 C-4.34 6 -3.68 6 -3 6 C-3 5.34 -3 4.68 -3 4 C-2.34 4 -1.68 4 -1 4 C-0.67 2.68 -0.34 1.36 0 0 Z " fill="#ACC6D3" transform="translate(1642,1633)"/>
<path d="M0 0 C0.66 0.33 1.32 0.66 2 1 C-2.95 5.95 -7.9 10.9 -13 16 C-13.66 15.67 -14.32 15.34 -15 15 C-13.44221619 13.2456027 -11.87905295 11.49653989 -10.3125 9.75 C-9.44238281 8.77546875 -8.57226562 7.8009375 -7.67578125 6.796875 C-5.25206689 4.26347429 -2.7912151 2.11227089 0 0 Z " fill="#EBF7FA" transform="translate(542,1096)"/>
<path d="M0 0 C1 2 1 2 0.3125 4.5 C-1.20787371 7.39594993 -2.14041682 7.65957039 -5 9 C-5.70151152 10.3153341 -6.36525925 11.65117592 -7 13 C-8.29470975 14.37086915 -9.62150897 15.71340837 -11 17 C-11.66 16.67 -12.32 16.34 -13 16 C-12.48050781 15.43152344 -11.96101563 14.86304688 -11.42578125 14.27734375 C-7.28691701 9.69475654 -3.47530782 5.10435836 0 0 Z " fill="#A7C2CF" transform="translate(1573,1230)"/>
<path d="M0 0 C0.33 0.66 0.66 1.32 1 2 C0.22265625 3.7265625 0.22265625 3.7265625 -0.9375 5.625 C-1.618125 6.73875 -2.29875 7.8525 -3 9 C-3.66 9 -4.32 9 -5 9 C-5.4021875 10.11375 -5.4021875 10.11375 -5.8125 11.25 C-6.94229421 13.86636554 -8.20893202 15.80187111 -10 18 C-10.66 17.67 -11.32 17.34 -12 17 C-10.75296895 15.10221245 -9.50223942 13.20685489 -8.25 11.3125 C-7.55390625 10.25675781 -6.8578125 9.20101563 -6.140625 8.11328125 C-4.20424772 5.29705372 -2.17198499 2.6367115 0 0 Z " fill="#A4C0CE" transform="translate(1392,1092)"/>
<path d="M0 0 C0 0.33 0 0.66 0 1 C-3.10408807 1.05807043 -6.2080364 1.09361914 -9.3125 1.125 C-10.63411133 1.15013672 -10.63411133 1.15013672 -11.98242188 1.17578125 C-12.82998047 1.18222656 -13.67753906 1.18867187 -14.55078125 1.1953125 C-15.33106689 1.20578613 -16.11135254 1.21625977 -16.9152832 1.22705078 C-19 1 -19 1 -22 -1 C-14.16296501 -1.89635331 -7.61399923 -2.19386419 0 0 Z " fill="#AAC3CE" transform="translate(847,950)"/>
<path d="M0 0 C0.66 0.33 1.32 0.66 2 1 C1.22914063 1.72445312 0.45828125 2.44890625 -0.3359375 3.1953125 C-1.34948858 4.17132465 -2.36248002 5.14791822 -3.375 6.125 C-3.88289062 6.599375 -4.39078125 7.07375 -4.9140625 7.5625 C-8.24377869 10.80459208 -9.88983383 13.49245785 -11 18 C-11.33 18 -11.66 18 -12 18 C-11.87428055 11.96546652 -9.93767528 9.19053718 -5.88671875 4.796875 C-4.02247694 3.02140661 -2.09230641 1.49648405 0 0 Z " fill="#A5C1CF" transform="translate(651,884)"/>
<path d="M0 0 C0 4.33174693 -2.65822583 6.22353653 -5.5 9.1875 C-6.28697266 10.02571289 -6.28697266 10.02571289 -7.08984375 10.88085938 C-8.38661613 12.26015364 -9.69246259 13.63090644 -11 15 C-11.33 14.01 -11.66 13.02 -12 12 C-8 8 -4 4 0 0 Z " fill="#9BBBCB" transform="translate(523,1077)"/>
<path d="M0 0 C1.0943977 2.77603319 1.00889467 3.97128737 0.109375 6.875 C-0.33921875 7.90625 -0.7878125 8.9375 -1.25 10 C-1.68828125 11.03125 -2.1265625 12.0625 -2.578125 13.125 C-3.8485493 15.69377 -5.19268111 17.78869218 -7 20 C-6.44896786 16.36318786 -5.33094291 13.26630828 -3.83203125 9.9140625 C-2.41781965 6.66071187 -1.22613253 3.32807402 0 0 Z " fill="#A2BFCE" transform="translate(336,1035)"/>
<path d="M0 0 C1.21236328 0.04060547 1.21236328 0.04060547 2.44921875 0.08203125 C3.06410156 0.11683594 3.67898438 0.15164063 4.3125 0.1875 C4.3125 0.5175 4.3125 0.8475 4.3125 1.1875 C2.29427083 1.64322917 0.27604167 2.09895833 -1.7421875 2.5546875 C-3.89469964 3.09224428 -3.89469964 3.09224428 -5.6875 5.1875 C-5.93003813 7.39822977 -5.93003813 7.39822977 -5.8125 9.8125 C-5.79445313 10.62976563 -5.77640625 11.44703125 -5.7578125 12.2890625 C-5.73460937 12.91554688 -5.71140625 13.54203125 -5.6875 14.1875 C-7.66694936 11.21832597 -7.98100581 10.53047721 -8 7.1875 C-8.01675781 6.506875 -8.03351562 5.82625 -8.05078125 5.125 C-7.1828386 0.49597252 -4.27503176 -0.18587095 0 0 Z " fill="#A1BECD" transform="translate(965.6875,824.8125)"/>
<path d="M0 0 C1.49341557 4.4802467 -0.27617446 7.73894207 -2 12 C-3.6875 15.0625 -3.6875 15.0625 -5 17 C-6 15 -6 15 -5.0390625 11.77734375 C-4.57549966 10.49455347 -4.1037858 9.21468659 -3.625 7.9375 C-3.39039063 7.28716797 -3.15578125 6.63683594 -2.9140625 5.96679688 C-1.14959206 1.14959206 -1.14959206 1.14959206 0 0 Z " fill="#ABC5D2" transform="translate(198,746)"/>
<path d="M0 0 C0 3 0 3 -1.96875 5.26171875 C-2.8040625 6.06222656 -3.639375 6.86273437 -4.5 7.6875 C-5.3353125 8.49574219 -6.170625 9.30398438 -7.03125 10.13671875 C-7.6809375 10.75160156 -8.330625 11.36648438 -9 12 C-9.33 11.01 -9.66 10.02 -10 9 C-6.7 6.03 -3.4 3.06 0 0 Z " fill="#A5C0CD" transform="translate(1559,1247)"/>
<path d="M0 0 C0.99 0.33 1.98 0.66 3 1 C0.69 3.97 -1.62 6.94 -4 10 C-4.33 9.34 -4.66 8.68 -5 8 C-4.2578125 6.30859375 -4.2578125 6.30859375 -3.125 4.4375 C-2.75632812 3.81746094 -2.38765625 3.19742187 -2.0078125 2.55859375 C-1 1 -1 1 0 0 Z " fill="#99BACA" transform="translate(1397,1086)"/>
<path d="M0 0 C0.99 0.33 1.98 0.66 3 1 C-3.07439825 5.90153173 -3.07439825 5.90153173 -6.9375 6.3125 C-7.618125 6.209375 -8.29875 6.10625 -9 6 C-6.11861791 3.75892504 -3.25320657 1.66831106 0 0 Z " fill="#AAC4D1" transform="translate(672,871)"/>
<path d="M0 0 C0.66 0.33 1.32 0.66 2 1 C1.07456291 2.34173403 0.13422595 3.67320159 -0.8125 5 C-1.33457031 5.7425 -1.85664063 6.485 -2.39453125 7.25 C-2.92433594 7.8275 -3.45414062 8.405 -4 9 C-4.99 9 -5.98 9 -7 9 C-4.69 6.03 -2.38 3.06 0 0 Z " fill="#ABC5D1" transform="translate(341,487)"/>
<path d="M0 0 C0.66 0 1.32 0 2 0 C3.07310858 3.27185553 2.89263102 5.42947592 2.0625 8.75 C1.86785156 9.54921875 1.67320313 10.3484375 1.47265625 11.171875 C1.31667969 11.77515625 1.16070313 12.3784375 1 13 C0.67 13 0.34 13 0 13 C0 8.71 0 4.42 0 0 Z " fill="#94B6C9" transform="translate(1726,1153)"/>
<path d="M0 0 C0.66 0 1.32 0 2 0 C0.44499019 3.81684226 -2.03595495 6.19195732 -5 9 C-4.42676569 5.13066838 -2.61046448 2.84777943 0 0 Z " fill="#E7F6FB" transform="translate(1394,1087)"/>
<path d="M0 0 C0.99 0.33 1.98 0.66 3 1 C-0.465 3.97 -0.465 3.97 -4 7 C-4 6.01 -4 5.02 -4 4 C-3.01 3.67 -2.02 3.34 -1 3 C-0.67 2.01 -0.34 1.02 0 0 Z " fill="#DFF0F6" transform="translate(516,1081)"/>
<path d="M0 0 C0.66 0.33 1.32 0.66 2 1 C-0.31 3.31 -2.62 5.62 -5 8 C-5.33 7.01 -5.66 6.02 -6 5 C-4.02 3.35 -2.04 1.7 0 0 Z " fill="#A7C0CC" transform="translate(1601,1673)"/>
<path d="M0 0 C-1.39332574 3.36720387 -2.9789286 4.9859524 -6 7 C-5.37162381 3.35541809 -4.14650034 0 0 0 Z " fill="#A9C4CF" transform="translate(1663,1614)"/>
<path d="M0 0 C0.66 0 1.32 0 2 0 C0.50902342 3.7952131 -1.75700849 5.61042731 -5 8 C-3.63055898 5.05043472 -2.12169591 2.47531189 0 0 Z " fill="#A3BFCB" transform="translate(1669,1605)"/>
<path d="M0 0 C0.66 0.33 1.32 0.66 2 1 C-0.31 3.31 -2.62 5.62 -5 8 C-5.33 7.01 -5.66 6.02 -6 5 C-4.02 3.35 -2.04 1.7 0 0 Z " fill="#EEFAFC" transform="translate(1558,1246)"/>
</svg>
